<?xml version="1.0" encoding="utf-8"?>
<!-- Generator: Adobe Illustrator 22.1.0, SVG Export Plug-In . SVG Version: 6.00 Build 0)  -->
<svg version="1.1" id="Layer_1" xmlns="http://www.w3.org/2000/svg" xmlns:xlink="http://www.w3.org/1999/xlink" x="0px" y="0px"
	 viewBox="0 0 2663 1151" style="enable-background:new 0 0 2663 1151;" xml:space="preserve">
<title>Asset 1</title>
<rect style="fill:#AB1524;" width="2663" height="1151"/>
<path style="fill:#FFFFFF;" d="M2215.6,162.9c-116,0.2-232,0.2-348,0.1c-23.5,0-47,0.1-70.5-0.1c-3.1,0-4.2,0.8-4.6,4
	c-1.3,10.9-3,21.8-4.5,32.7c-4.8,35.1-9.7,70.3-14.5,105.4c-4.8,35-9.7,69.9-14.5,104.9s-9.6,69.9-14.4,104.9
	c-5.2,37.6-10.4,75.2-15.6,112.8c-2,14.6-4.1,29.2-6.2,44.5c-0.3-0.5-0.6-1-0.8-1.6c-5-36.5-10-72.9-15-109.3
	c-5.5-40.2-10.9-80.5-16.4-120.8c-5.8-42.7-11.7-85.4-17.6-128.1c-6.1-45.2-12.3-90.4-18.4-135.6c-0.6-4.4,0-10.5-2.7-12.7
	s-8.5-0.8-13-0.8c-45.3,0-90.7,0-136,0c-2.5,0-5-0.9-4.4,3.8c4.8,36.3,9.3,72.7,13.9,109c0.9,7,1.7,14.1,2.5,21.1
	c-4-5.2-7-10.6-10.3-15.8c-45.9-72.1-110.6-114.1-196.8-117.6c-54.6-2.2-109.3-0.5-164-0.6c-3,0-3.8,1.1-3.5,3.8
	c0.1,1.3,0.1,2.7,0,4c-0.2,241.5-0.4,483-0.6,724.5v8.4c-1-2.5-1.7-5.1-2-7.8c-6.1-40.5-12.2-81-18.3-121.5
	c-6.2-41-12.4-82-18.6-122.9c-6.2-40.8-12.3-81.6-18.4-122.5c-6.1-40.8-12.3-81.7-18.5-122.5c-6.2-40.8-12.3-81.6-18.4-122.5
	c-5.8-38.7-11.8-77.3-17.4-116c-0.6-4-1.7-5.1-5.8-5.1c-64.2,0.1-128.3,0.1-192.5,0c-3.9,0-5.3,0.9-5.9,5
	c-5,34.3-10.2,68.5-15.3,102.7c-6.5,43.4-13.1,86.9-19.6,130.3c-6.2,40.8-12.3,81.6-18.5,122.4c-6.2,40.7-12.3,81.3-18.4,122
	c-6.1,40.8-12.3,81.6-18.4,122.5c-6.6,43.2-13.1,86.5-19.7,129.8c-1.7,10.9-3.3,21.8-5,32.7c-0.7-180.6-0.9-361.1-0.7-541.6
	c0-73.5,0-147,0-220.5c0-2.7,0.9-5.4-3.9-5.4c-62,0.2-124,0.2-186,0c-3.4,0-4.1,1.2-4.5,4.2c-1.9,13-4,26-6.1,39
	c-10.5,65.2-21.1,130.4-31.7,195.6c-10.1,62.9-20.2,125.9-30.3,188.8c-0.2,1.2-0.3,2.4-1.5,3.3c-3.2-20.2-6.3-40.1-9.4-60
	c-6.5-41.3-12.9-82.5-19.4-123.8L396,285.3c-6.1-39.1-12.2-78.3-18.3-117.4c-0.6-3.7-1.7-5-5.8-5c-61.2,0.2-122.3,0.2-183.5,0
	c-4.3,0-5.4,0.9-5.4,5.4c0.1,276.2,0.1,552.3,0,828.5c0,5,1.4,5.9,6.1,5.9c46.8-0.2,93.7-0.2,140.5,0c4.8,0,6.4-0.9,6.4-6.2
	c-0.2-128.7-0.2-257.3-0.1-386c0-2-0.5-4.2,0.8-6.7c0.9,4.9,1.7,9.3,2.4,13.7c9.1,53.3,18.2,106.6,27.4,159.9
	c8.6,50,17.1,100,25.8,150.1c4.1,23.6,8.1,47.2,12.1,70.9c0.5,3.1,1.6,4.4,5,4.3c24.3-0.2,48.7-0.2,73,0c3.3,0,4.3-1.2,4.7-4.1
	c1.5-9.9,3.3-19.7,5-29.5c9.8-58.1,19.6-116.2,29.4-174.3c9.6-56.8,19.2-113.5,28.9-170.3c1.2-7.1,1.8-14.4,4.5-22.7v29
	c0,122.2,0,244.3,0,366.5c0,3.2-0.3,5.5,4.5,5.5c95.2-0.2,190.3-0.2,285.5,0c3.5,0,4.4-1.2,4.8-4.4c5.4-39.9,11.1-79.8,16.4-119.7
	c0.5-4.2,2-5.1,5.9-5.1c34.2,0.1,68.3,0.1,102.5,0.1c10.5,0,10.7,0,12.2,10.2c5.3,37.6,10.5,75.2,15.5,112.8c0.6,4.8,2,6.2,7,6.2
	c92.3-0.1,184.7,0,277,0.2c7.2,0,6.3,0.9,6.3-6.4c0-87,0-174-0.1-261c0-4.7,1.6-5.9,5.7-6.3c8.1-0.9,16.2-1.8,24.2-3.4
	c4.7-0.9,6,0.3,7.2,4.8c23.3,89.1,46.8,178.1,70.3,267.2c1.1,4.4,3,5.2,7.1,5.2c45.8-0.1,91.7-0.2,137.5-0.1c8.1,0,6.8,0.1,4.8-6.7
	c-18.1-61.4-36.2-122.7-54.4-184.1c-12.9-43.7-25.8-87.3-38.7-131c-0.8-2.7-0.9-4.4,1.6-6.4c19.6-15.7,35.5-34.5,48.9-55.7
	c21.5-34.1,35.6-70.9,39.2-111.4c0.8-8.5,0.5-17,1.1-25.5c1.6,7.2,2.7,14.4,3.9,21.5c9.2,54.8,18.4,109.6,27.6,164.4
	c9.5,56.6,19,113.2,28.4,169.9c8.9,53.3,17.8,106.7,26.7,160c0.6,3.8,1.7,5.4,6.2,5.4c55.8-0.3,111.7-0.4,167.5-0.3
	c4.5,0,5.8-1.4,6.4-5.7c2.9-19.9,6.2-39.8,9.4-59.7c6.8-42.9,13.6-85.8,20.4-128.7l19.5-122.3c6.9-42.9,13.7-85.8,20.5-128.7
	c6.8-42.7,13.6-85.5,20.4-128.2c6.8-42.9,13.7-85.8,20.6-128.7c2.8-17.4,5.5-34.7,8.3-52.1l1.2,0.1v6.4c0,247,0,494-0.1,741
	c0,4.7,0.7,6.4,6.1,6.4c92.2-0.2,184.3-0.2,276.5,0c4.6,0,5.8-1.1,5.8-5.7c-0.2-46.7-0.2-93.3,0-140c0-4.4-1.1-5.5-5.5-5.5
	c-42,0.2-84,0-126,0.2c-4.4,0-5.5-1-5.5-5.5c0.2-60.8,0.2-121.7,0-182.5c0-4.3,1.2-5.1,5.2-5.1c42.2,0.2,84.3,0,126.5,0.2
	c4.1,0,5.2-1,5.2-5.2c-0.2-47.7-0.2-95.3,0-143c0-4.2-1.2-5.2-5.3-5.2c-42.2,0.1-84.3,0-126.5,0.2c-4.2,0-5.1-1.2-5.1-5.3
	c0.1-59.8,0.1-119.7,0-179.5c0-4.7,1.5-5.3,5.6-5.2c42,0.1,84,0,126,0.2c4.5,0,5.4-1.2,5.4-5.5c-0.2-47.2-0.2-94.3,0-141.5
	C2221.8,164.1,2220.6,162.9,2215.6,162.9z M965.2,740.2c-25.3-0.1-50.7-0.2-76,0c-3.9,0-4.7-1-4.3-4.8c2.6-21.1,5.1-42.3,7.5-63.5
	c3.8-32.6,7.6-65.1,11.4-97.7c3.8-32.7,7.6-65.5,11.4-98.2c3.5-30.1,7.1-60.1,10.7-90.2c0.1-0.5,0.2-1,0.3-1.4l0.6-0.1
	c3,25.1,6.1,50.2,9.2,75.3c3.9,31.9,7.7,63.8,11.6,95.7c3.8,31.2,7.6,62.4,11.3,93.7c3.5,28.9,6.8,57.9,10.5,86.8
	C970,740.1,968.7,740.2,965.2,740.2z M1379.8,518.2c-11.9,28.2-31.8,49.3-61.2,60.2c-7.1,2.6-14.4,3.8-21.9,4.5
	c-4,0.4-4.6-0.9-4.6-4.6c0.1-43.5,0.1-87,0.1-130.5v-128c0-7.5,0-7.5,7.7-6.6c41.3,4.8,69.4,27.2,82.9,66
	C1398.9,425.6,1399.1,472.5,1379.8,518.2L1379.8,518.2z"/>
<path style="fill:#FFFFFF;" d="M2529.1,856.2c0-4.2-1.4-4.8-5.1-4.8c-22.8,0.2-45.7,0.1-68.5,0.1c-16.8,0-33.7-0.2-50.5,0.1
	c-5,0.1-6.6-1.5-5.9-6.2c0.1-1.2,0.1-2.3,0-3.5V169.6c0-6.7,0-6.7-6.9-6.7c-46.2,0-92.3,0.1-138.5-0.1c-4.8,0-6,1.1-6,5.9
	c0.2,138,0.2,276,0.1,413.9c0,138.2,0,276.3-0.1,414.4c0,4.1,0.5,5.7,5.3,5.6c90.3-0.2,180.7-0.2,271,0c3.8,0,5-0.9,5-4.9
	C2529,950.6,2529,903.4,2529.1,856.2z"/>
</svg>
